<svg width="22" height="22" viewBox="0 0 22 22" fill="none" xmlns="http://www.w3.org/2000/svg">
<path d="M11.1406 0.351562C11.3021 0.356771 11.4505 0.388021 11.5859 0.445312C11.7214 0.507812 11.8516 0.601562 11.9766 0.726562L17.8594 6.74219C18.0573 6.9401 18.1562 7.18229 18.1562 7.46875C18.1562 7.66667 18.1094 7.84375 18.0156 8C17.9219 8.16146 17.7943 8.28906 17.6328 8.38281C17.4766 8.48177 17.3021 8.53125 17.1094 8.53125C16.8177 8.53125 16.5625 8.42188 16.3438 8.20312L11.1406 2.85156L5.9375 8.20312C5.71354 8.42188 5.45833 8.53125 5.17188 8.53125C4.97396 8.53125 4.79688 8.48177 4.64062 8.38281C4.48438 8.28906 4.35938 8.16146 4.26562 8C4.17188 7.84375 4.125 7.66667 4.125 7.46875C4.125 7.18229 4.22396 6.9401 4.42188 6.74219L10.3047 0.726562C10.4297 0.596354 10.5599 0.5 10.6953 0.4375C10.8359 0.380208 10.9844 0.351562 11.1406 0.351562Z" fill="white"/>
<path fill-rule="evenodd" clip-rule="evenodd" d="M11 2C11.5523 2 12 2.44772 12 3V14C12 14.5523 11.5523 15 11 15C10.4477 15 10 14.5523 10 14V3C10 2.44772 10.4477 2 11 2ZM1 14C1.55228 14 2 14.4477 2 15V19C2 19.5523 2.44772 20 3 20H19C19.5523 20 20 19.5523 20 19V15C20 14.4477 20.4477 14 21 14C21.5523 14 22 14.4477 22 15V19C22 20.6569 20.6569 22 19 22H3C1.34315 22 0 20.6569 0 19V15C0 14.4477 0.447715 14 1 14Z" fill="white"/>
</svg>
